<svg id="light" fill="#FFFFFF"  enable-background="new 0 0 24 24" height="512" viewBox="0 0 24 24" width="512" xmlns="http://www.w3.org/2000/svg"><path d="m18.5 24h-13c-1.378 0-2.5-1.121-2.5-2.5v-19c0-1.379 1.122-2.5 2.5-2.5h13c1.378 0 2.5 1.121 2.5 2.5v19c0 1.379-1.122 2.5-2.5 2.5zm-13-23c-.827 0-1.5.673-1.5 1.5v19c0 .827.673 1.5 1.5 1.5h13c.827 0 1.5-.673 1.5-1.5v-19c0-.827-.673-1.5-1.5-1.5z"/><path d="m13 18h-2c-.481 0-1-.369-1-1.18v-1.32c0-.586-.253-1.122-.676-1.434-1.169-.86-1.851-2.237-1.823-3.682.045-2.381 2.034-4.349 4.433-4.384 1.2.015 2.37.444 3.236 1.298.858.846 1.331 1.974 1.331 3.175 0 1.402-.675 2.741-1.806 3.581-.436.323-.695.866-.695 1.453v1.493c0 .552-.449 1-1 1zm-1.001-11c-.017 0-.034 0-.051 0-1.833.027-3.412 1.586-3.447 3.404-.022 1.12.507 2.188 1.416 2.857.678.5 1.083 1.337 1.083 2.239v1.32c0 .149.036.198.036.198l1.964-.018v-1.493c0-.901.41-1.744 1.097-2.256.892-.662 1.403-1.675 1.403-2.778 0-.932-.367-1.807-1.033-2.463-.661-.653-1.536-1.01-2.468-1.01z"/><path d="m13.5 16h-3c-.276 0-.5-.224-.5-.5s.224-.5.5-.5h3c.276 0 .5.224.5.5s-.224.5-.5.5z"/></svg>